# xmcd
#
# Track frame offsets:
#	150
#	35611
#	62814
#	93808
#	132378
#
# Disc length: 2258 seconds
#
# Revision: 1
# Processed by: cddbd v1.5.2PL0 Copyright (c) Steve Scherf et al.
# Submitted via: audiograbber 1.83.01
#
DISCID=3e08d005
DTITLE=Grateful Dead - 72-09-09 Hollywood Palladium, Hollywood CA
DYEAR=1900
DGENRE=
TTITLE0=Stella Blue
TTITLE1=El Paso
TTITLE2=Casey Jones
TTITLE3=Sugar Magnolia
TTITLE4=One More Saturday Night
EXTD=
EXTT0=
EXTT1=
EXTT2=
EXTT3=
EXTT4=
PLAYORDER=
